<svg width="90" height="120" viewBox="0 0 90 120" xmlns="http://www.w3.org/2000/svg">
  <!-- Tree layers (dark green/gray) -->
  <polygon points="45,10 25,35 30,35 15,55 20,55 10,75 35,75 35,90 55,90 55,75 80,75 70,55 75,55 60,35 65,35" fill="#1a2e15"/>
  <polygon points="45,12 27,35 32,35 17,55 22,55 12,75 37,75 37,88 53,88 53,75 78,75 68,55 73,55 58,35 63,35" fill="#243b1e"/>

  <!-- Star on top (dimmed) -->
  <polygon points="45,5 47,12 54,12 48,17 51,24 45,19 39,24 42,17 36,12 43,12" fill="#666655"/>

  <!-- Trunk (darker) -->
  <rect x="40" y="90" width="10" height="15" fill="#2a2015"/>

  <!-- Lights/ornaments (dark/off) -->
  <circle cx="35" cy="40" r="3" fill="#333333"/>
  <circle cx="50" cy="42" r="3" fill="#3a3a3a"/>
  <circle cx="45" cy="50" r="3" fill="#2d2d2d"/>
  <circle cx="28" cy="58" r="3" fill="#353535"/>
  <circle cx="55" cy="56" r="3" fill="#303030"/>
  <circle cx="38" cy="68" r="3" fill="#383838"/>
  <circle cx="52" cy="70" r="3" fill="#323232"/>
  <circle cx="25" cy="72" r="3" fill="#363636"/>
  <circle cx="62" cy="65" r="3" fill="#343434"/>
  <circle cx="45" cy="78" r="3" fill="#313131"/>
</svg>
